<?xml version="1.0" standalone="no"?>
<!DOCTYPE svg PUBLIC "-//W3C//DTD SVG 1.1//EN" "http://www.w3.org/Graphics/SVG/1.1/DTD/svg11.dtd" >
<svg xmlns="http://www.w3.org/2000/svg">
<metadata>Generated by IcoMoon</metadata>
<defs>
<font id="fddcase" horiz-adv-x="1024">
<font-face units-per-em="1024" ascent="960" descent="-64" />
<missing-glyph horiz-adv-x="1024" />
<glyph unicode="&#x20;" horiz-adv-x="512" d="" />
<glyph unicode="&#xe900;" glyph-name="add" d="M915.831 613.859l-230.761 201.915v-151.437h-266.817v-100.958h266.817v-151.437zM338.93 491.268l-237.972-201.915 237.972-209.127v151.437h266.817v108.169h-266.817z" />
<glyph unicode="&#xe901;" glyph-name="add1" d="M829.296 484.056h-281.239v281.239c0 21.634-14.423 36.056-36.056 36.056s-36.056-14.423-36.056-36.056v-281.239h-281.239c-21.634 0-36.056-14.423-36.056-36.056s14.423-36.056 36.056-36.056h281.239v-281.239c0-21.634 14.423-36.056 36.056-36.056s36.056 14.423 36.056 36.056v281.239h281.239c21.634 0 36.056 14.423 36.056 36.056s-14.423 36.056-36.056 36.056z" />
<glyph unicode="&#xe902;" glyph-name="annex" d="M786.028 722.028h-475.944c0 0 0 0-7.211 0 0 0 0 0-7.211 0-144.225 0-266.817-122.592-266.817-274.028s122.592-266.817 266.817-266.817h439.887c21.634 0 36.056 14.423 36.056 36.056s-14.423 36.056-36.056 36.056h-432.676c-108.169 0-194.704 86.535-194.704 194.704s86.535 194.704 194.704 194.704c0 0 0 0 7.211 0 0 0 0 0 7.211 0h475.944c72.113 0 129.803-57.69 129.803-129.803s-64.901-129.803-137.014-129.803h-468.732c-36.056 0-57.69 28.845-57.69 57.69s28.845 57.69 57.69 57.69h295.662c21.634 0 36.056 14.423 36.056 36.056s-21.634 36.056-43.268 36.056h-288.451c-72.113 0-129.803-57.69-129.803-129.803s57.69-129.803 129.803-129.803h475.944c115.38 0 201.915 93.746 201.915 201.915s-93.746 209.127-209.127 209.127z" />
<glyph unicode="&#xe903;" glyph-name="close" d="M562.479 448l288.451 288.451c14.423 14.423 14.423 36.056 0 50.479s-36.056 14.423-50.479 0l-288.451-288.451-288.451 288.451c-14.423 14.423-36.056 14.423-50.479 0s-21.634-36.056-7.211-43.268l288.451-288.451-288.451-288.451c-14.423-14.423-14.423-36.056 0-50.479 7.211-14.423 21.634-21.634 28.845-21.634s21.634 0 28.845 7.211l288.451 288.451 288.451-288.451c7.211-7.211 14.423-7.211 28.845-7.211s21.634 0 28.845 7.211c14.423 14.423 14.423 36.056 0 50.479l-295.662 295.662z" />
<glyph unicode="&#xe904;" glyph-name="delete" d="M814.873 729.239h-605.746c-21.634 0-36.056-14.423-36.056-36.056s14.423-36.056 36.056-36.056h598.535c21.634 0 36.056 14.423 36.056 36.056s-14.423 36.056-28.845 36.056zM432.676 765.296h158.648c21.634 0 36.056 14.423 36.056 36.056s-14.423 36.056-36.056 36.056h-158.648c-21.634 0-36.056-14.423-36.056-36.056s14.423-36.056 36.056-36.056zM757.183 592.225c-21.634 0-36.056-14.423-36.056-36.056v-403.831c0-14.423-14.423-21.634-28.845-21.634h-360.563c-14.423 0-28.845 14.423-28.845 21.634v403.831c0 21.634-14.423 36.056-36.056 36.056s-36.056-14.423-36.056-36.056v-403.831c0-50.479 43.268-93.746 100.958-93.746h367.775c50.479 0 100.958 43.268 100.958 93.746v403.831c-7.211 21.634-21.634 36.056-43.268 36.056zM468.732 238.873v317.296c0 21.634-14.423 36.056-36.056 36.056s-36.056-14.423-36.056-36.056v-317.296c0-21.634 14.423-36.056 36.056-36.056s36.056 14.423 36.056 36.056zM627.38 238.873v317.296c0 21.634-14.423 36.056-36.056 36.056s-36.056-14.423-36.056-36.056v-317.296c0-21.634 14.423-36.056 36.056-36.056s36.056 14.423 36.056 36.056z" />
<glyph unicode="&#xe905;" glyph-name="doubt" d="M512 830.197c-209.127 0-382.197-173.070-382.197-382.197s173.070-382.197 382.197-382.197 382.197 173.070 382.197 382.197-173.070 382.197-382.197 382.197zM540.845 217.239h-64.901v72.113h64.901v-72.113zM634.592 476.845c-7.211-21.634-28.845-43.268-43.268-57.69-21.634-14.423-36.056-28.845-43.268-50.479-7.211-14.423-14.423-21.634-14.423-28.845v-21.634h-50.479v28.845c0 14.423 7.211 36.056 14.423 50.479 7.211 21.634 21.634 36.056 43.268 57.69 14.423 14.423 28.845 28.845 36.056 43.268 0 14.423 7.211 28.845 7.211 43.268 0 28.845-7.211 43.268-21.634 57.69-7.211 14.423-28.845 21.634-50.479 21.634s-43.268-7.211-57.69-28.845c-7.211-14.423-21.634-43.268-21.634-79.324h-72.113c0 57.69 14.423 93.746 43.268 122.592s64.901 43.268 100.958 43.268c43.268 0 79.324-14.423 100.958-36.056s36.056-57.69 36.056-93.746c14.423-28.845 7.211-50.479-7.211-72.113z" />
<glyph unicode="&#xe906;" glyph-name="down" d="M879.775 397.521c-21.634 0-36.056-14.423-36.056-36.056v-187.493h-663.437v187.493c0 21.634-14.423 36.056-36.056 36.056s-36.056-14.423-36.056-36.056v-259.606h800.451v259.606c7.211 21.634-14.423 36.056-28.845 36.056zM483.155 303.775c7.211-7.211 21.634-14.423 28.845-14.423s21.634 7.211 28.845 14.423l151.437 165.859c14.423 14.423 14.423 36.056 0 50.479-21.634 14.423-43.268 7.211-57.69-7.211l-72.113-79.324v331.718h-108.169v-324.507l-72.113 79.324c-7.211 7.211-28.845 14.423-43.268 0s-14.423-36.056 0-50.479l144.225-165.859z" />
<glyph unicode="&#xe907;" glyph-name="edit" d="M771.606 390.31c-21.634 0-36.056-14.423-36.056-36.056v-245.183c0-14.423-7.211-28.845-21.634-28.845h-555.268c-14.423 0-21.634 14.423-21.634 28.845v677.859c0 14.423 7.211 28.845 21.634 28.845h418.254c21.634 0 36.056 14.423 36.056 36.056s-14.423 36.056-36.056 36.056h-418.254c-50.479 0-93.746-43.268-93.746-100.958v-677.859c0-50.479 43.268-100.958 93.746-100.958h555.268c50.479 0 93.746 43.268 93.746 100.958v245.183c0 21.634-14.423 36.056-36.056 36.056zM944.676 822.986c-14.423 14.423-36.056 14.423-50.479 0l-454.31-447.099c-14.423-14.423-21.634-36.056-7.211-50.479 7.211-7.211 21.634-14.423 28.845-14.423s21.634 0 21.634 7.211l461.521 447.099c14.423 21.634 14.423 43.268 0 57.69z" />
<glyph unicode="&#xe908;" glyph-name="email" d="M786.028 743.662h-548.056c-43.268 0-72.113-36.056-72.113-72.113v-432.676c0-43.268 36.056-72.113 72.113-72.113h548.056c43.268 0 72.113 36.056 72.113 72.113v432.676c0 36.056-36.056 72.113-72.113 72.113zM735.549 671.549l-223.549-230.761-230.761 230.761h454.31zM786.028 231.662h-548.056c0 0 0 0 0 0v382.197l252.394-252.394c0-7.211 14.423-14.423 21.634-14.423 0 0 0 0 0 0 7.211 0 21.634 7.211 28.845 7.211l252.394 252.394-7.211-374.986c0 0 0 0 0 0z" />
<glyph unicode="&#xe909;" glyph-name="eye" d="M512 707.606c-245.183 0-439.887-259.606-439.887-259.606s194.704-259.606 439.887-259.606c245.183 0 439.887 259.606 439.887 259.606s-194.704 259.606-439.887 259.606zM512 260.507c-108.169 0-187.493 86.535-187.493 187.493 0 108.169 86.535 187.493 187.493 187.493 108.169 0 187.493-86.535 187.493-187.493s-86.535-187.493-187.493-187.493zM634.592 448c0-67.705-54.886-122.592-122.592-122.592s-122.592 54.886-122.592 122.592c0 67.705 54.886 122.592 122.592 122.592s122.592-54.886 122.592-122.592z" />
<glyph unicode="&#xe90a;" glyph-name="glass" d="M735.549 260.507c72.113 64.901 122.592 158.648 122.592 259.606 0 187.493-151.437 346.141-346.141 346.141s-346.141-158.648-346.141-346.141c0-187.493 151.437-346.141 346.141-346.141 57.69 0 115.38 14.423 158.648 43.268l115.38-165.859c7.211-7.211 21.634-14.423 28.845-14.423s14.423 0 21.634 7.211c14.423 14.423 21.634 36.056 7.211 50.479l-108.169 165.859zM237.972 520.113c0 151.437 122.592 266.817 274.028 266.817s274.028-122.592 274.028-274.028-122.592-266.817-274.028-266.817c-151.437 0-274.028 122.592-274.028 274.028z" />
<glyph unicode="&#xe90b;" glyph-name="home" d="M1002.366 440.789l-439.887 461.521c-14.423 14.423-28.845 28.845-50.479 28.845s-36.056-7.211-50.479-21.634l-447.099-468.732c-14.423-14.423-14.423-36.056 0-50.479 14.423-7.211 21.634-14.423 28.845-14.423s21.634 7.211 28.845 14.423v7.211-331.718c0-50.479 43.268-93.746 93.746-93.746h685.070c50.479 0 93.746 43.268 93.746 93.746v331.718l7.211-7.211c14.423-14.423 36.056-14.423 50.479 0s14.423 36.056 0 50.479zM627.38 44.169h-230.761v281.239h237.972v-281.239zM872.563 462.423v-403.831c0-14.423-7.211-21.634-21.634-21.634h-151.437v288.451c0 36.056-28.845 64.901-64.901 64.901h-245.183c-36.056 0-64.901-28.845-64.901-64.901v-288.451h-158.648c-14.423 0-21.634 7.211-21.634 21.634v403.831c0 0 0 0 0 7.211l367.775 382.197 360.563-389.408c0 7.211 0 7.211 0 0z" />
<glyph unicode="&#xe90c;" glyph-name="id" d="M21.634 794.141v-699.493h980.732v699.493h-980.732zM930.254 173.972h-836.507v548.056h836.507v-548.056zM310.085 238.873c21.634 0 36.056 14.423 36.056 36.056v338.93c0 21.634-14.423 36.056-36.056 36.056s-36.056-14.423-36.056-36.056v-338.93c0-14.423 14.423-36.056 36.056-36.056zM771.606 448c0 194.704-64.901 201.915-346.141 201.915 0-115.38 0-259.606 0-396.62 274.028 0 346.141 0 346.141 194.704zM497.577 325.408v252.394c201.915 0 201.915-14.423 201.915-129.803s0-122.592-201.915-122.592z" />
<glyph unicode="&#xe90d;" glyph-name="list" d="M367.775 736.451h605.746c21.634 0 36.056 14.423 36.056 36.056s-14.423 36.056-36.056 36.056h-605.746c-21.634 0-36.056-14.423-36.056-36.056s14.423-36.056 36.056-36.056zM973.521 505.69h-605.746c-21.634 0-36.056-14.423-36.056-36.056s14.423-36.056 36.056-36.056h605.746c21.634 0 36.056 14.423 36.056 36.056s-14.423 36.056-36.056 36.056zM973.521 195.606h-605.746c-21.634 0-36.056-14.423-36.056-36.056s14.423-36.056 36.056-36.056h605.746c21.634 0 36.056 14.423 36.056 36.056s-14.423 36.056-36.056 36.056zM216.338 866.254l-100.958-108.169-43.268 43.268c-14.423 14.423-36.056 14.423-50.479 0-14.423-21.634-14.423-43.268 0-57.69l64.901-57.69c7.211-7.211 14.423-7.211 21.634-7.211s21.634 0 21.634 7.211l129.803 122.592c14.423 14.423 14.423 36.056 0 50.479-7.211 21.634-28.845 21.634-43.268 7.211zM216.338 548.958l-100.958-100.958-43.268 36.056c-14.423 14.423-36.056 14.423-50.479 0s-14.423-36.056 0-50.479l64.901-57.69c7.211-7.211 14.423-7.211 21.634-7.211s21.634 0 21.634 7.211l129.803 122.592c14.423 14.423 14.423 36.056 0 50.479-7.211 14.423-28.845 14.423-43.268 0zM144.225 282.141c-72.113 0-129.803-57.69-129.803-129.803s57.69-129.803 129.803-129.803 129.803 57.69 129.803 129.803-57.69 129.803-129.803 129.803zM144.225 94.648c-28.845 0-57.69 21.634-57.69 57.69s21.634 57.69 57.69 57.69c28.845 0 57.69-21.634 57.69-57.69s-28.845-57.69-57.69-57.69z" />
<glyph unicode="&#xe90e;" glyph-name="lock" d="M749.972 642.704c0 129.803-100.958 230.761-230.761 230.761s-230.761-100.958-230.761-230.761c0-79.324 36.056-144.225 100.958-187.493-144.225-57.69-245.183-194.704-245.183-353.352 0-21.634 14.423-36.056 36.056-36.056s36.056 14.423 36.056 36.056c0 173.070 137.014 310.085 310.085 310.085 7.211 0 14.423 0 14.423 7.211 108.169 0 209.127 93.746 209.127 223.549zM512 801.352c86.535 0 158.648-72.113 158.648-158.648s-72.113-158.648-158.648-158.648-158.648 72.113-158.648 158.648c0 86.535 72.113 158.648 158.648 158.648zM850.93 303.775c21.634 0 36.056 14.423 36.056 36.056s-14.423 36.056-36.056 36.056h-64.901v36.056h64.901c21.634 0 36.056 14.423 36.056 36.056s-14.423 36.056-36.056 36.056h-72.113c-36.056 0-64.901-28.845-64.901-64.901v-165.859c-43.268-14.423-72.113-57.69-72.113-108.169 0-64.901 50.479-115.38 115.38-115.38s115.38 50.479 115.38 115.38c0 57.69-36.056 100.958-86.535 115.38v43.268h64.901zM807.662 137.915c0-21.634-21.634-43.268-43.268-43.268s-43.268 21.634-43.268 43.268c0 21.634 21.634 43.268 43.268 43.268 21.634 7.211 43.268-14.423 43.268-43.268z" />
<glyph unicode="&#xe90f;" glyph-name="menu" d="M252.394 938.366c-129.803 0-230.761-100.958-230.761-230.761s100.958-230.761 230.761-230.761h230.761v230.761c0 122.592-108.169 230.761-230.761 230.761zM411.042 548.958h-158.648c-86.535 0-158.648 72.113-158.648 158.648s72.113 158.648 158.648 158.648 158.648-72.113 158.648-158.648v-158.648zM1002.366 707.606c0 129.803-100.958 230.761-230.761 230.761s-230.761-108.169-230.761-230.761v-230.761h230.761c129.803 0 230.761 100.958 230.761 230.761zM612.958 707.606c0 86.535 72.113 158.648 158.648 158.648s158.648-72.113 158.648-158.648-72.113-158.648-158.648-158.648h-158.648v158.648zM771.606 419.155h-230.761v-230.761c0-129.803 100.958-230.761 230.761-230.761s230.761 100.958 230.761 230.761-100.958 230.761-230.761 230.761zM771.606 36.958c-86.535 0-158.648 72.113-158.648 158.648v151.437h158.648c86.535 0 158.648-72.113 158.648-158.648s-72.113-151.437-158.648-151.437zM21.634 195.606c0-129.803 100.958-230.761 230.761-230.761s230.761 100.958 230.761 230.761v223.549h-230.761c-129.803 0-230.761-100.958-230.761-223.549zM411.042 195.606c0-86.535-72.113-158.648-158.648-158.648s-158.648 72.113-158.648 158.648 72.113 158.648 158.648 158.648h158.648v-158.648z" />
<glyph unicode="&#xe910;" glyph-name="news" d="M829.296 339.831v237.972c0 137.014-108.169 252.394-237.972 266.817-7.211 43.268-36.056 79.324-79.324 79.324s-72.113-36.056-79.324-79.324c-137.014-14.423-237.972-129.803-237.972-266.817v-237.972c-50.479-43.268-100.958-100.958-100.958-137.014 0-57.69 36.056-93.746 93.746-93.746h194.704v-36.056c0-50.479 43.268-93.746 93.746-93.746h72.113c50.479 0 93.746 43.268 93.746 93.746v36.056h194.704c50.479 0 93.746 43.268 93.746 93.746-7.211 28.845-36.056 72.113-100.958 137.014zM569.69 65.803c0-14.423-7.211-21.634-21.634-21.634h-72.113c-14.423 0-21.634 7.211-21.634 21.634v36.056h115.38v-36.056zM836.507 181.183h-649.014c-14.423 0-21.634 7.211-21.634 21.634 7.211 14.423 50.479 64.901 93.746 108.169v0 0 266.817c0 108.169 86.535 201.915 201.915 201.915h36.056v36.056c0 14.423 7.211 36.056 14.423 36.056s7.211-21.634 7.211-36.056v-36.056h36.056c108.169 0 201.915-86.535 201.915-201.915v-266.817c43.268-43.268 93.746-100.958 93.746-108.169 0-14.423-7.211-21.634-14.423-21.634z" />
<glyph unicode="&#xe911;" glyph-name="news1" d="M829.296 794.141h-634.592c-50.479 0-93.746-36.056-93.746-86.535v-374.986c0-50.479 36.056-86.535 86.535-86.535h194.704l129.803-144.225 144.225 144.225h173.070c50.479 0 86.535 36.056 86.535 86.535v374.986c0 50.479-36.056 86.535-86.535 86.535zM843.718 332.62c0-7.211-7.211-14.423-14.423-14.423h-173.070c-21.634 0-36.056-7.211-50.479-21.634l-93.746-93.746-72.113 93.746c-14.423 14.423-36.056 21.634-57.69 21.634h-187.493c-7.211 0-14.423 7.211-14.423 14.423v374.986c0 7.211 7.211 14.423 14.423 14.423h641.803c7.211 0 14.423-7.211 14.423-14.423v-374.986zM367.775 512.901c0-27.879-22.6-50.479-50.479-50.479s-50.479 22.6-50.479 50.479c0 27.879 22.6 50.479 50.479 50.479s50.479-22.6 50.479-50.479zM562.479 512.901c0-27.879-22.6-50.479-50.479-50.479s-50.479 22.6-50.479 50.479c0 27.879 22.6 50.479 50.479 50.479s50.479-22.6 50.479-50.479zM757.183 512.901c0-27.879-22.6-50.479-50.479-50.479s-50.479 22.6-50.479 50.479c0 27.879 22.6 50.479 50.479 50.479s50.479-22.6 50.479-50.479z" />
<glyph unicode="&#xe912;" glyph-name="people" d="M634.592 419.155c57.69 43.268 86.535 100.958 86.535 173.070 0 115.38-93.746 216.338-216.338 216.338-115.38 0-216.338-93.746-216.338-216.338 0-72.113 36.056-129.803 86.535-173.070-122.592-50.479-216.338-173.070-216.338-324.507 0-21.634 14.423-36.056 36.056-36.056s36.056 14.423 36.056 36.056c0 151.437 122.592 281.239 281.239 281.239s281.239-129.803 281.239-281.239c0-21.634 14.423-36.056 36.056-36.056s36.056 14.423 36.056 36.056c0 151.437-93.746 274.028-230.761 324.507zM512 729.239c79.324 0 144.225-64.901 144.225-144.225s-64.901-144.225-144.225-144.225-144.225 64.901-144.225 144.225 64.901 144.225 144.225 144.225z" />
<glyph unicode="&#xe913;" glyph-name="phone" d="M735.549 837.408h-447.099c-36.056 0-64.901-28.845-64.901-64.901v-656.225c0-36.056 28.845-64.901 64.901-64.901h454.31c36.056 0 64.901 28.845 64.901 64.901v663.437c-7.211 28.845-36.056 57.69-72.113 57.69zM295.662 303.775c0 0 0 0 0 0v324.507c0 0 0 0 0 0h425.465c0 0 0 0 0 0v-324.507c0 0 0 0 0 0h-425.465zM728.338 765.296v-64.901c0 0 0 0 0 0h-432.676c0 0 0 0 0 0v64.901h432.676zM295.662 130.704v100.958c0 0 0 0 0 0h158.648c-7.211-7.211-21.634-14.423-21.634-36.056s14.423-36.056 36.056-36.056h79.324c21.634 0 36.056 14.423 36.056 36.056 0 14.423-7.211 28.845-21.634 36.056h158.648c0 0 0 0 0 0v-100.958h-425.465z" />
<glyph unicode="&#xe914;" glyph-name="prompt" d="M512 895.099c-245.183 0-447.099-201.915-447.099-447.099s201.915-447.099 447.099-447.099 447.099 201.915 447.099 447.099-201.915 447.099-447.099 447.099zM512 145.127c-36.056 0-64.901 28.845-64.901 64.901s28.845 64.901 64.901 64.901c36.056-7.211 64.901-36.056 64.901-72.113s-28.845-57.69-64.901-57.69zM576.901 404.732c0-36.056-28.845-64.901-64.901-64.901s-64.901 28.845-64.901 64.901v288.451c0 36.056 28.845 64.901 64.901 64.901s64.901-28.845 64.901-64.901v-288.451z" />
<glyph unicode="&#xe915;" glyph-name="prompt1" d="M540.845 433.577c50.479 36.056 86.535 100.958 86.535 173.070 0 115.38-93.746 216.338-216.338 216.338-115.38 0-216.338-93.746-216.338-216.338 0-72.113 36.056-129.803 86.535-173.070-122.592-50.479-216.338-173.070-216.338-324.507 0-21.634 14.423-36.056 36.056-36.056s36.056 14.423 36.056 36.056c0 151.437 122.592 281.239 281.239 281.239 151.437 0 281.239-122.592 281.239-281.239 0-21.634 14.423-36.056 36.056-36.056s36.056 14.423 36.056 36.056c-7.211 151.437-100.958 274.028-230.761 324.507zM411.042 750.873c79.324 0 144.225-64.901 144.225-144.225s-64.901-144.225-144.225-144.225c-79.324 0-144.225 64.901-144.225 144.225 7.211 79.324 64.901 144.225 144.225 144.225zM771.606 440.789c50.479 36.056 86.535 100.958 86.535 165.859 0 115.38-93.746 216.338-216.338 216.338-21.634 0-36.056-14.423-36.056-36.056s21.634-36.056 43.268-36.056c79.324 0 144.225-64.901 144.225-144.225s-64.901-144.225-144.225-144.225c-21.634 7.211-36.056-7.211-36.056-28.845s14.423-36.056 36.056-36.056c137.014 0 245.183-108.169 245.183-245.183 0-21.634 14.423-36.056 36.056-36.056s36.056 14.423 36.056 36.056c-7.211 129.803-79.324 237.972-194.704 288.451z" />
<glyph unicode="&#xe916;" glyph-name="star" d="M540.845 765.296l79.324-165.859c7.211-7.211 21.634-14.423 28.845-21.634l180.282-28.845c28.845-7.211 43.268-43.268 21.634-57.69l-129.803-122.592c-7.211-7.211-14.423-21.634-14.423-36.056l28.845-180.282c7.211-28.845-28.845-50.479-50.479-36.056l-158.648 86.535c-7.211 7.211-21.634 7.211-36.056 0l-158.648-86.535c-28.845-14.423-57.69 7.211-50.479 36.056l28.845 180.282c0 14.423 0 21.634-7.211 28.845l-129.803 129.803c-21.634 21.634-7.211 57.69 21.634 64.901l180.282 28.845c14.423 0 21.634 7.211 28.845 21.634l79.324 165.859c7.211 14.423 43.268 14.423 57.69-7.211z" />
<glyph unicode="&#xe917;" glyph-name="upload" d="M879.775 411.944c-21.634 0-36.056-14.423-36.056-36.056v-187.493h-663.437v187.493c0 21.634-14.423 36.056-36.056 36.056s-36.056-14.423-36.056-36.056v-259.606h800.451v259.606c7.211 21.634-14.423 36.056-28.845 36.056zM360.563 548.958c7.211 0 21.634 7.211 28.845 14.423l72.113 79.324v-331.718h108.169v324.507l72.113-79.324c14.423-14.423 36.056-14.423 50.479 0s14.423 36.056 0 50.479l-151.437 165.859c-14.423 14.423-36.056 14.423-50.479 0l-158.648-165.859c-14.423-14.423-14.423-36.056 0-50.479 14.423-7.211 21.634-7.211 28.845-7.211z" />
<glyph unicode="&#xe918;" glyph-name="warning" d="M944.676 253.296l-346.141 512c-43.268 64.901-137.014 64.901-180.282 0l-338.93-512c-50.479-72.113 7.211-165.859 93.746-165.859h685.070c79.324-7.211 129.803 93.746 86.535 165.859zM512 217.239c-21.634 0-43.268 21.634-43.268 43.268s21.634 43.268 43.268 43.268c21.634 0 43.268-21.634 43.268-43.268s-21.634-43.268-43.268-43.268zM555.268 397.521c0-21.634-21.634-43.268-43.268-43.268s-43.268 21.634-43.268 43.268v194.704c0 21.634 21.634 43.268 43.268 43.268s43.268-21.634 43.268-43.268v-194.704z" />
<glyph unicode="&#xe919;" glyph-name="arrowr" d="M360.563 722.028v-548.056l302.873 266.817z" />
<glyph unicode="&#xe91a;" glyph-name="arrowx" d="M346.141 87.437c-7.211 0-21.634 0-21.634 7.211-14.423 14.423-14.423 36.056 0 50.479l288.451 310.085-295.662 295.662c-14.423 14.423-14.423 36.056 0 50.479s36.056 14.423 50.479 0l346.141-346.141-346.141-360.563c-7.211-7.211-14.423-7.211-21.634-7.211z" />
<glyph unicode="&#xe91b;" glyph-name="gou" d="M447.099 303.775c-7.211 0-21.634 0-28.845 7.211l-122.592 129.803c-14.423 14.423-14.423 36.056 0 50.479s36.056 14.423 50.479 0l100.958-100.958 230.761 194.704c14.423 14.423 36.056 14.423 50.479 0s14.423-36.056-7.211-50.479l-252.394-223.549c-7.211-7.211-14.423-7.211-21.634-7.211z" />
<glyph unicode="&#xe91c;" glyph-name="paix" d="M274.028 786.93c-7.211 14.423-14.423 14.423-28.845 14.423s-21.634 0-28.845-14.423l-122.592-165.859c-14.423-14.423-14.423-36.056 0-50.479 21.634-7.211 43.268-7.211 50.479 7.211l64.901 79.324v-533.634c0-21.634 14.423-36.056 36.056-36.056s36.056 14.423 36.056 36.056v540.845l57.69-79.324c7.211-14.423 21.634-21.634 28.845-21.634s14.423 0 21.634 7.211c14.423 14.423 21.634 36.056 7.211 50.479l-122.592 165.859zM490.366 613.859h194.704c21.634 0 36.056 14.423 36.056 36.056s-21.634 36.056-36.056 36.056h-194.704c-21.634 0-36.056-14.423-36.056-36.056s14.423-36.056 36.056-36.056zM490.366 383.099h295.662c21.634 0 36.056 14.423 36.056 36.056s-14.423 36.056-36.056 36.056h-295.662c-21.634 0-36.056-14.423-36.056-36.056s14.423-36.056 36.056-36.056zM901.408 202.817h-411.042c-21.634 0-36.056-14.423-36.056-36.056s14.423-36.056 36.056-36.056h411.042c21.634 0 36.056 14.423 36.056 36.056s-14.423 36.056-36.056 36.056z" />
<glyph unicode="&#xe91d;" glyph-name="paixd" d="M749.972 109.070c7.211-7.211 14.423-14.423 28.845-14.423s21.634 7.211 28.845 14.423l122.592 165.859c14.423 14.423 7.211 36.056-7.211 50.479s-36.056 7.211-50.479-7.211l-57.69-79.324v526.423c0 21.634-14.423 36.056-36.056 36.056s-36.056-14.423-36.056-36.056v-526.423l-64.901 79.324c-7.211 7.211-14.423 14.423-28.845 14.423-7.211 0-14.423 0-21.634-7.211-14.423-14.423-14.423-36.056-7.211-50.479l129.803-165.859zM533.634 282.141h-194.704c-21.634 0-36.056-14.423-36.056-36.056s14.423-36.056 36.056-36.056h194.704c21.634 0 36.056 14.423 36.056 36.056s-14.423 36.056-36.056 36.056zM533.634 512.901h-302.873c-14.423 0-36.056-14.423-36.056-36.056s21.634-36.056 36.056-36.056h295.662c21.634 0 36.056 14.423 36.056 36.056s-7.211 36.056-28.845 36.056zM122.592 700.394h411.042c21.634 0 36.056 14.423 36.056 36.056s-14.423 36.056-36.056 36.056h-411.042c-21.634 0-36.056-14.423-36.056-36.056s14.423-36.056 36.056-36.056z" />
<glyph unicode="&#xe91e;" glyph-name="heji" d="M872.563 469.634c0 21.634-7.211 57.69-50.479 79.324 28.845 28.845 50.479 64.901 50.479 100.958 0 115.38-158.648 194.704-360.563 194.704s-360.563-86.535-360.563-194.704c0-36.056 21.634-72.113 50.479-100.958-43.268-21.634-50.479-50.479-50.479-79.324 0-43.268 28.845-72.113 72.113-93.746-50.479-21.634-72.113-43.268-72.113-79.324 0-28.845 21.634-57.69 57.69-72.113-36.056-14.423-57.69-43.268-57.69-64.901 0-108.169 302.873-115.38 360.563-115.38s360.563 7.211 360.563 115.38c0 28.845-21.634 50.479-57.69 64.901 36.056 14.423 57.69 43.268 57.69 72.113 0 36.056-21.634 57.69-72.113 79.324 43.268 21.634 72.113 57.69 72.113 93.746zM512 779.718c165.859 0 288.451-64.901 288.451-122.592s-122.592-122.592-288.451-122.592-288.451 64.901-288.451 122.592c0 57.69 122.592 122.592 288.451 122.592zM793.239 159.549c-36.056-14.423-129.803-43.268-281.239-43.268s-245.183 21.634-281.239 43.268c14.423 7.211 50.479 21.634 115.38 28.845 72.113-7.211 144.225-14.423 165.859-14.423s86.535 0 165.859 14.423c57.69-7.211 93.746-21.634 115.38-28.845zM793.239 296.563c-28.845-21.634-122.592-50.479-281.239-50.479s-259.606 28.845-288.451 50.479c14.423 7.211 50.479 28.845 122.592 36.056 50.479-7.211 108.169-14.423 158.648-14.423 57.69 0 108.169 7.211 158.648 14.423 79.324-7.211 115.38-28.845 129.803-36.056zM512 390.31c-187.493 0-288.451 57.69-288.451 79.324 0 7.211 14.423 21.634 43.268 36.056 64.901-28.845 144.225-50.479 245.183-50.479 93.746 0 180.282 21.634 245.183 50.479 36.056-14.423 43.268-28.845 43.268-36.056 0-21.634-100.958-79.324-288.451-79.324zM584.113 657.127c0-51.775-32.286-93.746-72.113-93.746s-72.113 41.972-72.113 93.746c0 51.775 32.286 93.746 72.113 93.746s72.113-41.972 72.113-93.746z" />
<glyph unicode="&#xe91f;" glyph-name="anjian" d="M612.958 859.042h-432.676v-814.873h670.648v548.056l-237.972 266.817zM620.169 736.451l115.38-129.803h-115.38v129.803zM245.183 116.282v670.648h302.873c0 0 0 0 0 0v-245.183h223.549v-425.465h-526.423zM649.014 505.69h-274.028c-21.634 0-36.056-14.423-36.056-36.056s14.423-36.056 36.056-36.056h274.028c21.634 0 36.056 14.423 36.056 36.056s-21.634 36.056-36.056 36.056zM649.014 397.521h-274.028c-21.634 0-36.056-14.423-36.056-36.056s14.423-36.056 36.056-36.056h274.028c21.634 0 36.056 14.423 36.056 36.056s-21.634 36.056-36.056 36.056zM649.014 282.141h-274.028c-21.634 0-36.056-14.423-36.056-36.056s14.423-36.056 36.056-36.056h274.028c21.634 0 36.056 14.423 36.056 36.056s-21.634 36.056-36.056 36.056z" />
<glyph unicode="&#xe920;" glyph-name="entrust" d="M886.986 476.845l-310.085 274.028c-7.211 7.211-21.634 14.423-36.056 7.211s-21.634-21.634-21.634-36.056v-122.592h-180.282c-7.211 7.211-21.634 0-21.634-7.211s-14.423-14.423-14.423-21.634v-237.972c0-21.634 14.423-36.056 36.056-36.056h180.282v-122.592c0-14.423 7.211-28.845 21.634-36.056 7.211 0 7.211 0 14.423 0s14.423 0 21.634 7.211l310.085 281.239c7.211 7.211 14.423 14.423 14.423 28.845s-7.211 14.423-14.423 21.634zM591.324 253.296v72.113c0 21.634-14.423 36.056-36.056 36.056h-180.282v173.070h180.282c7.211 0 21.634 7.211 28.845 7.211s7.211 14.423 7.211 28.845v72.113l216.338-194.704-216.338-194.704zM158.648 599.437c-21.634 0-36.056-14.423-36.056-36.056v-230.761c0-21.634 14.423-36.056 36.056-36.056s36.056 14.423 36.056 36.056v230.761c0 21.634-14.423 36.056-36.056 36.056z" />
<glyph unicode="&#xe921;" glyph-name="comment" d="M822.085 815.775h-620.169c-50.479 0-100.958-43.268-100.958-100.958v-403.831c0-50.479 43.268-100.958 100.958-100.958h50.479l43.268-129.803 144.225 129.803h382.197c50.479 0 100.958 43.268 100.958 100.958v403.831c-7.211 57.69-50.479 100.958-100.958 100.958zM843.718 310.986c0-14.423-14.423-28.845-28.845-28.845h-411.042l-79.324-72.113-21.634 72.113h-100.958c-14.423 0-28.845 14.423-28.845 28.845v403.831c0 14.423 14.423 28.845 28.845 28.845h620.169c14.423 0 28.845-14.423 28.845-28.845v-403.831zM749.972 635.493h-483.155c-14.423 0-36.056-14.423-36.056-36.056s14.423-36.056 36.056-36.056h483.155c21.634 0 36.056 14.423 36.056 36.056s-14.423 36.056-36.056 36.056zM562.479 498.479h-288.451c-21.634 0-36.056-14.423-36.056-36.056s14.423-36.056 36.056-36.056h288.451c21.634 0 36.056 14.423 36.056 36.056s-14.423 36.056-36.056 36.056z" />
<glyph unicode="&#xe922;" glyph-name="end" d="M757.183 729.239c-21.634 14.423-43.268 7.211-57.69-7.211-7.211-14.423-7.211-36.056 7.211-50.479 64.901-57.69 108.169-144.225 108.169-230.761 0-165.859-137.014-302.873-302.873-302.873s-302.873 137.014-302.873 302.873c0 86.535 36.056 173.070 108.169 230.761 14.423 14.423 14.423 36.056 7.211 50.479-21.634 14.423-43.268 21.634-57.69 7.211-86.535-72.113-129.803-173.070-129.803-288.451 0-209.127 165.859-374.986 374.986-374.986s374.986 165.859 374.986 374.986c0 108.169-50.479 216.338-129.803 288.451zM512 440.789c21.634 0 36.056 14.423 36.056 36.056v317.296c0 21.634-14.423 36.056-36.056 36.056s-36.056-14.423-36.056-36.056v-317.296c0-14.423 14.423-36.056 36.056-36.056z" />
<glyph unicode="&#xe923;" glyph-name="alipy" d="M512 844.62c-216.338 0-389.408-173.070-389.408-389.408 0-72.113 21.634-137.014 50.479-194.704 7.211-21.634 28.845-28.845 43.268-21.634s21.634 28.845 14.423 50.479c-28.845 50.479-43.268 100.958-43.268 158.648 0 180.282 144.225 317.296 317.296 317.296 180.282 0 317.296-144.225 317.296-317.296s-144.225-317.296-317.296-317.296c-36.056 0-72.113 7.211-108.169 21.634-21.634 7.211-36.056 0-43.268-21.634s0-36.056 21.634-43.268c43.268-14.423 86.535-21.634 129.803-21.634 216.338 0 389.408 173.070 389.408 389.408 7.211 209.127-165.859 389.408-382.197 389.408zM382.197 404.732c-21.634 0-36.056-14.423-36.056-36.056s14.423-36.056 36.056-36.056h93.746v-72.113c0-21.634 14.423-36.056 36.056-36.056s36.056 14.423 36.056 36.056v72.113h93.746c21.634 0 36.056 14.423 36.056 36.056s-14.423 36.056-36.056 36.056h-93.746v43.268h93.746c21.634 0 36.056 14.423 36.056 36.056s-21.634 36.056-36.056 36.056h-64.901l50.479 50.479c14.423 14.423 14.423 36.056 0 50.479-7.211 14.423-28.845 14.423-50.479 0l-72.113-64.901-79.324 64.901c-14.423 14.423-36.056 14.423-50.479 0s-7.211-43.268 7.211-50.479l57.69-43.268h-57.69c-21.634-7.211-36.056-21.634-36.056-43.268s14.423-36.056 36.056-36.056h93.746v-43.268h-93.746z" />
<glyph unicode="&#xe924;" glyph-name="sign" d="M317.296 505.69c-43.268 21.634-108.169 50.479-115.38 72.113 0 7.211 7.211 21.634 14.423 28.845 72.113 93.746 295.662 86.535 374.986 79.324 21.634 0 36.056 14.423 43.268 28.845 0 21.634-14.423 36.056-28.845 43.268-14.423 0-324.507 36.056-439.887-108.169-28.845-28.845-36.056-57.69-28.845-86.535 7.211-64.901 86.535-93.746 151.437-129.803 21.634-7.211 50.479-21.634 64.901-36.056-14.423 0-43.268-14.423-64.901-21.634-50.479-14.423-115.38-36.056-122.592-100.958-14.423-86.535 72.113-129.803 122.592-144.225 0 0 7.211 0 7.211 0 14.423 0 28.845 14.423 36.056 28.845 7.211 21.634-7.211 36.056-28.845 43.268 0 0-79.324 21.634-72.113 57.69 0 14.423 43.268 36.056 79.324 43.268 50.479 14.423 108.169 36.056 115.38 86.535 7.211 57.69-43.268 86.535-108.169 115.38zM735.549 592.225l-302.873-302.873v-151.437h151.437l302.873 324.507-151.437 129.803zM555.268 202.817h-50.479v57.69l237.972 237.972 43.268-43.268-230.761-252.394z" />
<glyph unicode="&#xe925;" glyph-name="eye1" d="M937.465 469.634c-7.211 14.423-194.704 274.028-425.465 274.028-237.972 0-418.254-259.606-425.465-274.028l-14.423-21.634 14.423-21.634c7.211-14.423 187.493-274.028 425.465-274.028s418.254 259.606 425.465 274.028l14.423 21.634-14.423 21.634zM512 231.662c-165.859 0-302.873 158.648-353.352 223.549 50.479 50.479 187.493 216.338 353.352 216.338s302.873-158.648 353.352-223.549c-50.479-57.69-194.704-216.338-353.352-216.338zM512 599.437c-79.324 0-151.437-72.113-151.437-151.437s64.901-144.225 144.225-144.225c79.324 0 144.225 64.901 144.225 144.225 7.211 79.324-57.69 151.437-137.014 151.437zM512 375.887c-43.268 0-72.113 36.056-72.113 72.113s36.056 72.113 72.113 72.113 72.113-36.056 72.113-72.113-28.845-72.113-72.113-72.113z" />
<glyph unicode="&#xe926;" glyph-name="arrowt" d="M519.211 296.563c-7.211 0-21.634 7.211-28.845 14.423l-230.761 230.761c-14.423 14.423-14.423 36.056 0 50.479s36.056 14.423 50.479 0l209.127-209.127 187.493 209.127c14.423 14.423 36.056 14.423 50.479 0s14.423-36.056 0-50.479l-216.338-237.972c0-7.211-7.211-7.211-21.634-7.211 0 0 0 0 0 0z" />
<glyph unicode="&#xe927;" glyph-name="left" d="M670.648 794.141c7.211 0 21.634 0 21.634-7.211 14.423-14.423 14.423-36.056 0-50.479l-274.028-288.451 274.028-281.239c14.423-14.423 14.423-36.056 0-50.479s-36.056-14.423-50.479 0l-324.507 331.718 324.507 338.93c7.211 0 14.423 7.211 28.845 7.211z" />
<glyph unicode="&#xe928;" glyph-name="bill" d="M721.127 830.197h-21.634c-21.634 0-36.056-14.423-36.056-36.056s14.423-36.056 36.056-36.056h21.634c14.423 0 28.845-14.423 28.845-28.845v-562.479c0-14.423-14.423-21.634-28.845-21.634h-418.254c-14.423 0-28.845 14.423-28.845 21.634v562.479c0 14.423 14.423 28.845 28.845 28.845h36.056c21.634 0 36.056 14.423 36.056 36.056s-21.634 36.056-43.268 36.056h-28.845c-50.479 0-100.958-43.268-100.958-100.958v-562.479c0-50.479 43.268-93.746 100.958-93.746h418.254c50.479 0 100.958 43.268 100.958 93.746v562.479c0 50.479-50.479 100.958-100.958 100.958zM447.099 527.324h-57.69c-21.634 0-36.056-14.423-36.056-36.056s14.423-36.056 36.056-36.056h93.746v-43.268h-93.746c-21.634 0-36.056-14.423-36.056-36.056s14.423-36.056 36.056-36.056h93.746v-72.113c0-21.634 14.423-36.056 36.056-36.056s36.056 14.423 36.056 36.056v72.113h93.746c21.634 0 36.056 14.423 36.056 36.056s-21.634 36.056-36.056 36.056h-93.746v43.268h93.746c21.634 0 36.056 14.423 36.056 36.056s-21.634 36.056-36.056 36.056h-64.901l50.479 50.479c14.423 7.211 14.423 36.056 7.211 50.479-14.423 14.423-36.056 14.423-50.479 0l-72.113-64.901-86.535 64.901c-14.423 14.423-36.056 14.423-50.479-7.211-14.423-14.423-7.211-36.056 7.211-50.479l57.69-43.268zM425.465 750.873h180.282c21.634 0 43.268 14.423 43.268 43.268s-21.634 43.268-43.268 43.268h-180.282c-21.634 0-43.268-21.634-43.268-43.268s21.634-43.268 43.268-43.268z" />
<glyph unicode="&#xe929;" glyph-name="gou2" d="M382.197 173.972c-7.211 0-7.211 0 0 0-14.423 0-21.634 7.211-28.845 14.423l-209.127 230.761c-7.211 14.423-7.211 36.056 7.211 50.479s36.056 14.423 50.479 0l180.282-201.915 439.887 454.31c14.423 14.423 36.056 14.423 50.479 0s14.423-36.056 0-50.479l-468.732-475.944c-7.211-14.423-14.423-21.634-21.634-21.634z" />
<glyph unicode="&#xe92a;" glyph-name="doubt1" d="M512 822.986c-201.915 0-374.986-165.859-374.986-374.986 0-201.915 165.859-374.986 374.986-374.986 201.915 0 374.986 165.859 374.986 374.986s-173.070 374.986-374.986 374.986zM512 145.127c-165.859 0-302.873 137.014-302.873 302.873s137.014 302.873 302.873 302.873 302.873-137.014 302.873-302.873-137.014-302.873-302.873-302.873zM512 642.704c-21.634 0-36.056-14.423-36.056-36.056v-187.493c0-21.634 14.423-36.056 36.056-36.056s36.056 14.423 36.056 36.056v187.493c0 21.634-14.423 36.056-36.056 36.056zM483.155 318.197c-7.211-7.211-7.211-14.423-7.211-28.845s7.211-21.634 14.423-28.845c7.211-7.211 14.423-7.211 28.845-7.211 7.211 0 21.634 0 28.845 7.211s7.211 14.423 7.211 28.845 0 21.634-7.211 21.634c-21.634 21.634-50.479 21.634-64.901 7.211z" />
<glyph unicode="&#xe92b;" glyph-name="view" d="M367.775 202.817h-122.592c-14.423 0-28.845 14.423-28.845 28.845v475.944c0 14.423 14.423 28.845 28.845 28.845h382.197c14.423 0 28.845-14.423 28.845-28.845v-310.085c0-21.634 14.423-36.056 36.056-36.056s36.056 14.423 36.056 36.056v310.085c0 50.479-43.268 100.958-100.958 100.958h-382.197c-50.479 0-100.958-43.268-100.958-100.958v-475.944c0-50.479 43.268-100.958 100.958-100.958h122.592c21.634 0 36.056 14.423 36.056 36.056s-14.423 36.056-36.056 36.056zM865.352 361.465c-14.423 14.423-36.056 14.423-50.479 0l-201.915-187.493-86.535 93.746c-14.423 14.423-36.056 14.423-50.479 0s-14.423-36.056 0-50.479l108.169-108.169c7.211-14.423 21.634-14.423 28.845-14.423s14.423 0 21.634 7.211l223.549 209.127c21.634 14.423 21.634 36.056 7.211 50.479z" />
<glyph unicode="&#xe92c;" glyph-name="laba" d="M901.408 772.507c-21.634 0-36.056-14.423-36.056-36.056v-555.268c0-21.634 14.423-36.056 36.056-36.056s36.056 14.423 36.056 36.056v555.268c0 21.634-14.423 36.056-36.056 36.056zM742.761 736.451l-360.563-137.014h-50.479c-36.056 0-64.901-28.845-64.901-64.901v-353.352c0-28.845 21.634-50.479 50.479-50.479s50.479 21.634 50.479 50.479v115.38c0 28.845 28.845 43.268 50.479 36.056l324.507-137.014c28.845-14.423 57.69 7.211 57.69 36.056v461.521c0 28.845-28.845 50.479-57.69 43.268zM151.437 548.958l-36.056-7.211c-21.634-7.211-36.056-28.845-36.056-50.479v-79.324c0-21.634 14.423-43.268 36.056-50.479l36.056-7.211c36.056-7.211 64.901 14.423 64.901 50.479v100.958c0 28.845-28.845 50.479-64.901 43.268z" />
<glyph unicode="&#xe92d;" glyph-name="laba1" d="M814.873 786.93h-612.958c-28.845 0-57.69-28.845-57.69-64.901v-548.056c0-36.056 28.845-64.901 64.901-64.901h612.958c36.056 0 64.901 28.845 64.901 64.901v548.056c-7.211 36.056-36.056 64.901-72.113 64.901zM411.042 671.549h173.070c21.634 0 36.056-14.423 36.056-36.056s-14.423-36.056-36.056-36.056h-173.070c-21.634 0-36.056 14.423-36.056 36.056s14.423 36.056 36.056 36.056zM274.028 700.394c36.056 0 64.901-28.845 64.901-64.901s-36.056-57.69-64.901-57.69-64.901 21.634-64.901 57.69 28.845 64.901 64.901 64.901zM814.873 210.028h-569.69c-21.634 0-36.056 14.423-36.056 36.056s14.423 36.056 36.056 36.056h569.69c21.634 0 36.056-14.423 36.056-36.056s-14.423-36.056-36.056-36.056zM814.873 332.62h-569.69c-21.634 0-36.056 14.423-36.056 36.056s14.423 36.056 36.056 36.056h569.69c21.634 0 36.056-14.423 36.056-36.056s-14.423-36.056-36.056-36.056z" />
<glyph unicode="&#xe92e;" glyph-name="eyy1" d="M512 765.296c-93.746 0-180.282-14.423-259.606-43.268l115.38-100.958c36.056 36.056 86.535 50.479 144.225 50.479 129.803 0 230.761-100.958 230.761-230.761 0-43.268-14.423-86.535-36.056-122.592l137.014-122.592c108.169 57.69 180.282 144.225 180.282 245.183-7.211 187.493-230.761 324.507-512 324.507zM612.958 375.887c14.423 21.634 21.634 43.268 21.634 72.113 0 64.901-57.69 122.592-122.592 122.592-28.845 0-57.69-14.423-79.324-28.845l-324.507 288.451c-14.423 14.423-36.056 14.423-50.479 0s-14.423-36.056 0-50.479l108.169-93.746c-100.958-64.901-165.859-144.225-165.859-237.972 0-173.070 230.761-317.296 504.789-317.296 86.535 0 165.859 14.423 230.761 36.056l108.169-93.746c7.211-7.211 14.423-7.211 21.634-7.211s21.634 7.211 28.845 14.423c14.423 14.423 14.423 36.056 0 50.479l-281.239 245.183zM512 217.239c-129.803 0-230.761 100.958-230.761 230.761 0 36.056 7.211 72.113 28.845 100.958l86.535-72.113c0-7.211-7.211-21.634-7.211-28.845 0-64.901 57.69-122.592 122.592-122.592 14.423 0 28.845 0 43.268 7.211l79.324-72.113c-36.056-21.634-79.324-43.268-122.592-43.268z" />
<glyph unicode="&#xe92f;" glyph-name="eyy2" d="M512 765.296c-281.239 0-504.789-144.225-504.789-317.296s230.761-317.296 504.789-317.296 504.789 144.225 504.789 317.296-223.549 317.296-504.789 317.296zM512 217.239c-129.803 0-230.761 100.958-230.761 230.761s100.958 230.761 230.761 230.761c129.803 0 230.761-100.958 230.761-230.761s-108.169-230.761-230.761-230.761zM634.592 448c0-67.705-54.886-122.592-122.592-122.592s-122.592 54.886-122.592 122.592c0 67.705 54.886 122.592 122.592 122.592s122.592-54.886 122.592-122.592z" />
<glyph unicode="&#xe930;" glyph-name="password" d="M908.62 556.169h-86.535v151.437c0 108.169-115.38 201.915-252.394 201.915h-115.38c-144.225-7.211-252.394-93.746-252.394-201.915v-151.437h-86.535c-21.634 0-36.056-14.423-36.056-36.056v-461.521c0-36.056 28.845-64.901 64.901-64.901h742.761c36.056 0 64.901 28.845 64.901 64.901v454.31c-7.211 21.634-21.634 43.268-43.268 43.268zM274.028 707.606c0 72.113 86.535 129.803 180.282 129.803h115.38c100.958 0 180.282-57.69 180.282-129.803v-151.437h-475.944v151.437z" />
<glyph unicode="&#xe931;" glyph-name="account" d="M742.761 642.704c0-147.359-103.315-266.817-230.761-266.817s-230.761 119.458-230.761 266.817c0 147.359 103.315 266.817 230.761 266.817s230.761-119.458 230.761-266.817zM512 310.986c-237.972 0-432.676-144.225-432.676-324.507h865.352c0 180.282-194.704 324.507-432.676 324.507z" />
<glyph unicode="&#xe932;" glyph-name="more" d="M741.517 395.034c-39 0-70.621 31.62-70.621 70.621s31.62 70.621 70.621 70.621c39 0 70.621-31.62 70.621-70.621s-31.62-70.621-70.621-70.621zM529.655 395.034c-39 0-70.621 31.62-70.621 70.621s31.62 70.621 70.621 70.621c39 0 70.621-31.62 70.621-70.621s-31.62-70.621-70.621-70.621zM300.138 395.034c-39 0-70.621 31.62-70.621 70.621s31.62 70.621 70.621 70.621c39 0 70.621-31.62 70.621-70.621s-31.62-70.621-70.621-70.621z" />
<glyph unicode="&#xe933;" glyph-name="alipay" d="M167.808 316.224c0 38.912 22.976 81.344 117.12 87.488 94.080 6.144 221.184-66.624 221.184-66.624s-93.888-114.24-204.48-114.24-133.824 54.272-133.824 93.376zM421.76 748.672v-92.928h-190.976v-40.832l190.976 1.408v-61.952h-153.216v-32.32h315.328s-3.52-26.24-15.488-58.88c-12.096-32.64-24.512-61.312-24.512-61.312s-148.096 51.84-226.176 51.84c-78.080 0-172.864-31.296-182.080-122.176-9.216-90.944 44.16-140.16 119.36-158.4 75.136-18.176 144.576 0.192 205.056 29.76 60.416 29.632 119.744 96.768 119.744 96.768l313.408-152.32s19.712 29.824 33.92 57.472c14.144 27.584 25.856 59.2 25.856 59.2l-327.808 110.272s20.032 30.016 41.408 88.896c21.44 58.88 24.512 91.264 24.512 91.264l-169.024 1.408v57.664l204.672 1.408v40.832h-204.672v92.928h-100.288z" />
<glyph unicode="&#xe934;" glyph-name="doubt2" d="M512 923.944c-266.817 0-475.944-216.338-475.944-475.944 0-266.817 216.338-475.944 475.944-475.944s475.944 216.338 475.944 475.944c0 266.817-216.338 475.944-475.944 475.944zM512 44.169c-223.549 0-403.831 180.282-403.831 403.831s180.282 403.831 403.831 403.831 403.831-180.282 403.831-403.831c0-223.549-180.282-403.831-403.831-403.831zM468.732 267.718h79.324v-86.535h-79.324v86.535zM512 714.817c-43.268 0-79.324-14.423-115.38-50.479-28.845-28.845-50.479-79.324-50.479-144.225h79.324c0 43.268 7.211 72.113 28.845 93.746 14.423 21.634 36.056 28.845 64.901 28.845s43.268-7.211 57.69-21.634c14.423-14.423 21.634-36.056 21.634-64.901 0-14.423 0-36.056-7.211-50.479-14.423-14.423-28.845-36.056-43.268-50.479-28.845-21.634-43.268-43.268-57.69-64.901-7.211-14.423-14.423-36.056-14.423-57.69v-36.056h64.901v28.845c0 7.211 7.211 21.634 14.423 36.056s21.634 36.056 43.268 57.69c21.634 14.423 43.268 36.056 57.69 64.901s21.634 50.479 21.634 86.535c0 43.268-14.423 79.324-43.268 108.169-28.845 21.634-72.113 36.056-122.592 36.056z" />
<glyph unicode="&#xe935;" glyph-name="annex1" d="M836.507 786.93c-43.268 50.479-108.169 86.535-180.282 86.535-72.113 7.211-144.225-21.634-194.704-64.901l-338.93-295.662c-14.423-14.423-14.423-36.056 0-57.69s36.056-14.423 50.479 0l331.718 295.662c36.056 36.056 86.535 50.479 144.225 50.479 50.479 0 100.958-28.845 137.014-64.901 72.113-79.324 64.901-209.127-14.423-281.239 0 0 0 0 0-7.211 0 0 0 0-7.211 0l-360.563-324.507c-50.479-50.479-137.014-43.268-187.493 7.211-21.634 28.845-36.056 57.69-36.056 93.746s14.423 64.901 43.268 93.746l137.014 129.803c0 0 0 0 0 0l216.338 194.704c14.423 7.211 28.845 14.423 43.268 14.423s28.845-7.211 43.268-21.634c7.211-14.423 14.423-28.845 14.423-43.268s-7.211-28.845-21.634-43.268l-216.338-194.704c-14.423-7.211-14.423-28.845 0-43.268 7.211-7.211 14.423-14.423 28.845-14.423 7.211 0 14.423 0 21.634 7.211l216.338 194.704c28.845 21.634 43.268 57.69 43.268 86.535 0 36.056-7.211 64.901-36.056 93.746-14.423 36.056-50.479 50.479-86.535 50.479s-64.901-7.211-93.746-36.056l-115.38-100.958c0 0 0 0 0 0l-237.972-216.338c-43.268-36.056-64.901-86.535-64.901-137.014 0-57.69 14.423-108.169 50.479-144.225 36.056-50.479 93.746-72.113 151.437-72.113 50.479 0 93.746 14.423 137.014 50.479l360.563 324.507c0 0 0 0 0 7.211 0 0 0 0 7.211 0 108.169 100.958 115.38 266.817 14.423 382.197z" />
<glyph unicode="&#xe936;" glyph-name="personal" d="M728.338 397.521c-36.056 28.845-72.113 50.479-115.38 64.901 43.268 36.056 79.324 86.535 79.324 144.225 0 100.958-79.324 180.282-180.282 180.282s-180.282-79.324-180.282-180.282c-7.211-64.901 28.845-115.38 72.113-151.437-144.225-43.268-252.394-180.282-252.394-338.93h57.69c0 165.859 137.014 302.873 302.873 302.873 72.113 0 137.014-21.634 187.493-64.901l28.845 43.268zM504.789 729.239c72.113 0 122.592-57.69 122.592-122.592 0-72.113-57.69-122.592-122.592-122.592-72.113 0-122.592 57.69-122.592 122.592 0 72.113 57.69 122.592 122.592 122.592zM562.479 310.986h245.183v-57.69h-245.183v57.69zM562.479 166.761h245.183v-57.69h-245.183v57.69z" />
<glyph unicode="&#xe937;" glyph-name="company" d="M324.507 606.648h201.915v-57.69h-201.915v57.69zM324.507 462.423h201.915v-57.69h-201.915v57.69zM324.507 318.197h201.915v-57.69h-201.915v57.69zM858.141 159.549v389.408h-173.070v151.437c0 50.479-36.056 86.535-86.535 86.535h-346.141c-50.479 0-86.535-36.056-86.535-86.535v-540.845h-36.056v-57.69h764.394v57.69h-36.056zM800.451 498.479v-331.718h-115.38v331.718h115.38zM223.549 700.394c0 21.634 14.423 36.056 36.056 36.056h338.93c21.634 0 36.056-14.423 36.056-36.056v-540.845h-411.042v540.845z" />
<glyph unicode="&#xe938;" glyph-name="code" d="M874.437 833.379c-9.084-0.325-17.959-0.441-26.695-0.441-229.59 0-330.747 101.854-331.606 102.807l-22.885 24.255-23.070-24.279c-0.906-1.069-100.065-102.807-331.56-102.807-8.736 0-17.611 0.116-26.788 0.441l-32.224 1.069v-461.898c0-120.952 41.703-297.361 402.258-432.322l11.268-4.205 11.268 4.205c360.555 134.984 402.258 311.37 402.258 432.322v461.898l-32.224-1.045zM457.704 253.039l-207.751 189.606 55.179 46.002 110.474-83.918c0 0 152.479 162.516 299.754 238.395l21.072-24.372c0 0-184.099-157.126-278.728-365.713v0z" />
<glyph unicode="&#xe939;" glyph-name="rili" d="M256 409.6h512c20.48 0 38.4 17.92 38.4 38.4s-17.92 38.4-38.4 38.4h-512c-20.48 0-38.4-17.92-38.4-38.4s17.92-38.4 38.4-38.4zM256 230.4h512c20.48 0 38.4 17.92 38.4 38.4s-17.92 38.4-38.4 38.4h-512c-20.48 0-38.4-17.92-38.4-38.4s17.92-38.4 38.4-38.4zM358.4 832h307.2v-76.8h-307.2zM896 832h-76.8v-76.8h76.8v-691.2h-768v691.2h76.8v76.8h-76.8c-43.52 0-76.8-33.28-76.8-76.8v-691.2c0-43.52 33.28-76.8 76.8-76.8h768c43.52 0 76.8 33.28 76.8 76.8v691.2c0 43.52-33.28 76.8-76.8 76.8zM281.6 665.6c20.48 0 38.4 17.92 38.4 38.4v179.2c0 20.48-17.92 38.4-38.4 38.4s-38.4-17.92-38.4-38.4v-179.2c0-20.48 17.92-38.4 38.4-38.4zM742.4 665.6c20.48 0 38.4 17.92 38.4 38.4v179.2c0 20.48-17.92 38.4-38.4 38.4s-38.4-17.92-38.4-38.4v-179.2c0-20.48 17.92-38.4 38.4-38.4z" />
<glyph unicode="&#xe93a;" glyph-name="buquan" d="M475.944 210.028h-201.915c-14.423 0-28.845 14.423-28.845 28.845v475.944c0 14.423 14.423 28.845 28.845 28.845h382.197c14.423 0 28.845-14.423 28.845-28.845v-310.085c0-21.634 14.423-36.056 36.056-36.056s36.056 14.423 36.056 36.056v310.085c0 50.479-43.268 100.958-100.958 100.958h-382.197c-50.479 0-100.958-43.268-100.958-100.958v-475.944c0-50.479 43.268-100.958 100.958-100.958h201.915c21.634 0 36.056 14.423 36.056 36.056s-14.423 36.056-36.056 36.056zM829.296 210.028h-72.113v72.113c0 21.634-14.423 36.056-36.056 36.056s-36.056-14.423-36.056-36.056v-72.113h-72.113c-21.634 0-36.056-14.423-36.056-36.056s14.423-36.056 36.056-36.056h72.113v-72.113c0-21.634 14.423-36.056 36.056-36.056s36.056 14.423 36.056 36.056v72.113h72.113c21.634 0 36.056 14.423 36.056 36.056s-14.423 36.056-36.056 36.056z" />
<glyph unicode="&#xe93b;" glyph-name="news2" d="M829.296 794.141h-634.592c-50.479 0-93.746-36.056-93.746-86.535v-374.986c0-50.479 36.056-86.535 86.535-86.535h194.704l129.803-144.225 144.225 144.225h173.070c50.479 0 86.535 36.056 86.535 86.535v374.986c0 50.479-36.056 86.535-86.535 86.535zM274.028 455.211c-36.056 0-64.901 28.845-64.901 64.901s28.845 64.901 64.901 64.901c36.056 0 64.901-28.845 64.901-64.901s-28.845-64.901-64.901-64.901zM512 455.211c-36.056 0-64.901 28.845-64.901 64.901s28.845 64.901 64.901 64.901c36.056 0 64.901-28.845 64.901-64.901s-28.845-64.901-64.901-64.901zM749.972 455.211c-36.056 0-64.901 28.845-64.901 64.901s28.845 64.901 64.901 64.901c36.056 0 64.901-28.845 64.901-64.901s-28.845-64.901-64.901-64.901z" />
</font>
</defs>
</svg>
